<?xml version="1.0" encoding="UTF-8"?>
<svg xmlns="http://www.w3.org/2000/svg" xmlns:xlink="http://www.w3.org/1999/xlink" width="40px" height="40px" viewBox="0 0 40 40" version="1.1">
<g id="surface1">
<rect x="0" y="0" width="40" height="40" style="fill:rgb(0%,100%,100%);fill-opacity:1;stroke:none;"/>
<path style="fill-rule:nonzero;fill:rgb(90.196078%,0%,0%);fill-opacity:1;stroke-width:1;stroke-linecap:butt;stroke-linejoin:miter;stroke:rgb(90.196078%,0%,0%);stroke-opacity:1;stroke-miterlimit:4;" d="M 285.084032 230.385 L 456.200748 59.268284 C 462.302417 53.166615 462.302417 43.339148 456.200748 37.291477 L 423.532521 4.569252 C 420.616679 1.65341 416.620896 0.033498 412.517118 0.033498 C 408.413341 0.033498 404.417558 1.65341 401.501716 4.569252 L 230.385 175.685968 L 59.268284 4.569252 C 56.352442 1.65341 52.410656 0.033498 48.252882 0.033498 C 44.149104 0.033498 40.153321 1.65341 37.291477 4.569252 L 4.569252 37.291477 C -1.532417 43.339148 -1.532417 53.166615 4.569252 59.268284 L 175.685968 230.385 L 4.569252 401.501716 C -1.47842 407.603385 -1.47842 417.430852 4.569252 423.478523 L 37.291477 456.200748 C 40.207318 459.11659 44.149104 460.736502 48.252882 460.736502 C 52.410656 460.736502 56.352442 459.11659 59.268284 456.200748 L 230.385 285.084032 L 401.501716 456.200748 C 404.417558 459.11659 408.359344 460.736502 412.517118 460.736502 C 416.620896 460.736502 420.562682 459.11659 423.478523 456.200748 L 456.200748 423.478523 C 462.24842 417.430852 462.24842 407.603385 456.200748 401.501716 Z M 285.084032 230.385 " transform="matrix(0.0723419,0,0,0.0723419,3.333514,3.333514)"/>
</g>
</svg>
